<svg style="" width="26.687500" height="17.968750" version="1.1" xmlns="http://www.w3.org/2000/svg">
<path d="M13.343750 -0.000000 C11.677075 -0.000000 10.052091 0.135415 8.468750 0.406250 C6.864575 0.656251 5.437506 1.031247 4.187500 1.531250 C2.937494 2.031253 1.927087 2.656246 1.156250 3.406250 C0.385413 4.156254 0.000000 5.020828 0.000000 6.000000 C0.000000 7.000005 0.385413 7.874996 1.156250 8.625000 C1.927087 9.354170 2.937494 9.973956 4.187500 10.484375 C5.437506 10.994794 6.864575 11.374999 8.468750 11.625000 C10.052091 11.875001 11.677075 12.000000 13.343750 12.000000 C15.010425 12.000000 16.635409 11.875001 18.218750 11.625000 C19.822925 11.374999 21.249994 10.994794 22.500000 10.484375 C23.750006 9.973956 24.760413 9.354170 25.531250 8.625000 C26.302087 7.874996 26.687500 7.000005 26.687500 6.000000 C26.687500 5.020828 26.302087 4.156254 25.531250 3.406250 C24.760413 2.656246 23.750006 2.031253 22.500000 1.531250 C21.249994 1.031247 19.822925 0.656251 18.218750 0.406250 C16.635409 0.135415 15.010425 -0.000000 13.343750 -0.000000 Z M6.687500 13.250000 L6.687500 17.250000 C7.500004 17.458334 8.359370 17.624999 9.265625 17.750000 C10.171880 17.875001 11.083329 17.947917 12.000000 17.968750 L12.000000 13.968750 C11.041662 13.947917 10.104171 13.869792 9.187500 13.734375 C8.270829 13.598958 7.375004 13.427084 6.500000 13.218750 L6.687500 13.250000 Z M14.687500 13.968750 L14.687500 17.968750 C15.645838 17.947917 16.583329 17.869792 17.500000 17.734375 C18.416671 17.598958 19.312496 17.427084 20.187500 17.218750 L20.000000 17.250000 L20.000000 13.250000 C19.229163 13.458334 18.390630 13.624999 17.484375 13.750000 C16.578120 13.875001 15.656255 13.947917 14.718750 13.968750 L14.687500 13.968750 Z M22.687500 12.406250 L22.687500 16.406250 C23.875006 15.906247 24.838538 15.286462 25.578125 14.546875 C26.317712 13.807288 26.687500 12.958338 26.687500 12.000000 L26.687500 8.000000 C26.687500 8.958338 26.317712 9.807288 25.578125 10.546875 C24.838538 11.286462 23.875006 11.906247 22.687500 12.406250 Z M4.000000 16.406250 L4.000000 12.406250 C2.812494 11.906247 1.848962 11.286462 1.109375 10.546875 C0.369788 9.807288 0.000000 8.958338 0.000000 8.000000 L0.000000 12.000000 C0.000000 12.958338 0.369788 13.807288 1.109375 14.546875 C1.848962 15.286462 2.812494 15.906247 4.000000 16.406250 Z M29.343750 23.343750" style="fill:#5a5a5a;"/>
</svg>